<svg version="1.1" id="Layer_1" xmlns="http://www.w3.org/2000/svg" xmlns:xlink="http://www.w3.org/1999/xlink" x="0px" y="0px"
	 width="100%" viewBox="0 0 398 516" enable-background="new 0 0 398 516" xml:space="preserve">
<path fill="#FFFFFF" opacity="1.000000" stroke="none" 
	d="
M399.000000,84.000000 
	C399.000000,228.242599 399.000000,372.485199 399.000000,517.000000 
	C313.311523,517.000000 227.622742,517.000000 141.675797,516.640015 
	C147.275497,515.464355 153.133347,514.648621 159.359528,513.767395 
	C165.852829,511.485291 171.977814,509.268677 178.472214,507.013855 
	C183.910080,504.352844 188.978561,501.730103 194.401947,499.052551 
	C201.520721,494.034271 208.284561,489.070831 215.350433,483.959961 
	C222.804443,475.222900 229.956406,466.633301 237.401489,457.862946 
	C240.740829,451.788177 243.787048,445.894165 246.913467,439.631287 
	C248.607254,434.508453 250.220856,429.754517 252.018951,424.654968 
	C256.256104,412.230499 257.408661,399.773132 257.433228,387.239624 
	C260.037476,387.811218 262.266724,388.650421 264.493744,388.644714 
	C272.671753,388.623688 280.849060,388.322113 289.461945,388.078125 
	C297.611816,386.056671 305.326385,384.083160 313.410156,382.044952 
	C322.216461,377.006042 330.653503,372.031830 339.386292,366.907776 
	C346.400513,358.834656 353.118988,350.911377 359.999939,342.673065 
	C363.477905,334.586884 366.793396,326.815765 370.418915,318.821045 
	C373.455750,308.906860 374.686951,299.059357 373.897858,288.540283 
	C372.679504,280.045410 371.398254,272.003601 370.063354,263.572113 
	C366.712128,255.777542 363.414551,248.372635 359.964691,240.652008 
	C354.059021,231.295883 347.322754,223.231796 338.978943,216.311737 
	C321.943878,202.183517 302.234833,195.317673 280.520905,194.177917 
	C272.739960,193.769485 264.849518,195.446228 256.618866,196.114670 
	C251.451553,197.688492 246.674438,199.318909 241.520782,200.967346 
	C236.564011,203.244354 231.983780,205.503387 227.080444,207.844193 
	C222.134872,211.270676 217.512405,214.615387 212.589935,218.096909 
	C208.824646,221.805527 205.359360,225.377350 201.604401,229.125031 
	C198.170471,234.191360 195.026215,239.081818 191.590332,244.157181 
	C189.162354,249.548065 187.026001,254.754044 184.589737,260.180511 
	C183.522583,263.920776 182.755341,267.440582 181.602051,270.988708 
	C180.138519,270.677429 179.073059,270.291962 177.981644,270.005432 
	C167.990128,267.382355 157.994110,264.776367 147.585785,262.076111 
	C142.795029,261.620331 138.417862,261.253906 133.778992,260.559570 
	C127.010643,260.543427 120.504005,260.855194 113.589165,261.125610 
	C112.088509,261.387421 110.997162,261.694611 109.903458,261.993164 
	C100.252724,264.627411 90.601585,267.260193 80.579742,269.952728 
	C72.791985,273.970673 65.375046,277.929291 57.645523,282.041138 
	C52.539787,286.093323 47.746632,289.992340 42.647236,294.043457 
	C37.859989,299.113495 33.378979,304.031403 28.593822,309.097534 
	C21.021975,318.260162 14.559194,327.745331 10.636607,339.093781 
	C7.606011,349.194672 4.886653,359.099915 2.103616,369.393616 
	C1.693291,371.188080 1.346645,372.594025 1.000000,374.000000 
	C1.000000,249.744934 1.000000,125.489883 1.000000,1.000000 
	C106.355232,1.000000 211.710632,1.000000 317.286530,1.304514 
	C306.973175,2.755757 297.275238,6.563232 288.651550,12.397576 
	C283.185760,16.095442 278.795959,21.383718 273.632538,26.122051 
	C269.606628,32.201096 265.871796,38.116814 261.960541,44.361481 
	C260.492035,49.440701 259.199951,54.190971 257.604858,59.216408 
	C256.919739,64.001732 256.537598,68.511902 256.103638,73.445435 
	C256.421722,77.248520 256.791595,80.628220 257.127167,84.397774 
	C258.447479,89.198189 259.802155,93.608765 261.116943,98.382408 
	C263.015961,102.509331 264.954895,106.273170 267.050171,110.348083 
	C270.455170,114.807030 273.703796,118.954895 277.122192,123.393341 
	C280.510406,126.155724 283.728912,128.627533 287.120941,131.399353 
	C294.679230,135.047302 301.799744,139.304382 309.506470,141.544785 
	C323.464294,145.602402 337.620117,145.187759 351.773987,139.813751 
	C357.130341,137.252884 362.088806,134.677811 367.363800,131.958282 
	C373.062622,126.880333 378.444946,121.946831 383.992920,116.707077 
	C387.004303,111.326988 389.850037,106.253151 393.019470,101.070435 
	C395.228790,95.307709 397.114410,89.653854 399.000000,84.000000 
M163.978867,105.246895 
	C159.069626,94.682083 151.834503,86.241959 140.950729,80.186012 
	C127.651321,71.709801 112.938194,69.740685 98.068604,73.284271 
	C65.057961,81.151070 46.928295,111.849106 54.415901,144.512299 
	C57.351082,157.316437 63.554062,168.531708 75.275238,176.687286 
	C85.116119,184.625793 96.419312,188.512070 109.909081,188.962341 
	C113.687454,188.647232 117.508621,188.590210 121.236717,187.971924 
	C136.628143,185.419388 149.023697,177.831329 158.347763,165.305405 
	C164.711166,156.756836 168.167816,147.199203 169.393417,136.543564 
	C170.641342,125.693810 168.922729,115.623489 163.978867,105.246895 
z"/>
<path fill="#4C98E6" opacity="1.000000" stroke="none" 
	d="
M10.947850,338.898071 
	C14.559194,327.745331 21.021975,318.260162 28.903111,309.243469 
	C91.629158,365.443237 133.946564,434.172577 158.991211,513.832886 
	C153.133347,514.648621 147.275497,515.464355 141.208817,516.640015 
	C135.645065,517.000000 130.290146,517.000000 124.467606,516.543152 
	C123.099342,507.889801 123.218880,499.415771 121.080719,491.555908 
	C116.925789,476.282379 111.950569,461.187469 106.433632,446.346222 
	C103.275940,437.851624 99.148895,429.488098 94.104942,421.973999 
	C85.000092,408.410217 75.256577,395.228119 65.079536,382.444122 
	C54.610313,369.293060 41.863289,358.437805 27.685574,349.346527 
	C22.149416,345.796539 16.529577,342.377045 10.947850,338.898071 
z"/>
<path fill="#4C89E6" opacity="1.000000" stroke="none" 
	d="
M1.000000,374.468658 
	C1.346645,372.594025 1.693291,371.188080 2.495907,369.393127 
	C10.069215,371.618011 17.563271,373.511810 24.224781,376.996948 
	C37.719002,384.056732 48.822472,394.345215 59.021896,405.555634 
	C68.978600,416.499237 77.209778,428.798157 83.327187,442.131500 
	C93.480659,464.261688 98.946991,487.488251 94.564705,512.070557 
	C93.050552,511.812317 91.906830,511.709717 90.831932,511.381622 
	C77.074936,507.182648 64.364243,500.916016 53.101055,491.757416 
	C54.397507,483.781128 56.629944,476.126129 56.419342,468.538971 
	C56.136078,458.333984 51.934834,449.037079 45.885658,440.605560 
	C35.577663,426.238068 22.680550,416.726288 3.974155,416.646790 
	C2.856338,412.194427 1.928169,408.097198 1.000000,404.000000 
	C1.000000,394.312439 1.000000,384.624878 1.000000,374.468658 
z"/>
<path fill="#4C91E6" opacity="1.000000" stroke="none" 
	d="
M94.967125,512.121460 
	C98.946991,487.488251 93.480659,464.261688 83.327187,442.131500 
	C77.209778,428.798157 68.978600,416.499237 59.021896,405.555634 
	C48.822472,394.345215 37.719002,384.056732 24.224781,376.996948 
	C17.563271,373.511810 10.069215,371.618011 2.559586,369.004639 
	C4.886653,359.099915 7.606011,349.194672 10.636612,339.093750 
	C16.529577,342.377045 22.149416,345.796539 27.685574,349.346527 
	C41.863289,358.437805 54.610313,369.293060 65.079536,382.444122 
	C75.256577,395.228119 85.000092,408.410217 94.104942,421.973999 
	C99.148895,429.488098 103.275940,437.851624 106.433632,446.346222 
	C111.950569,461.187469 116.925789,476.282379 121.080719,491.555908 
	C123.218880,499.415771 123.099342,507.889801 124.000000,516.543152 
	C121.958336,517.000000 119.916664,517.000000 117.230164,516.638733 
	C109.379265,514.892090 102.173195,513.506775 94.967125,512.121460 
z"/>
<path fill="#FFFFFF" opacity="1.000000" stroke="none" 
	d="
M94.564705,512.070557 
	C102.173195,513.506775 109.379265,514.892090 116.792664,516.638733 
	C78.407333,517.000000 39.814667,517.000000 1.000000,517.000000 
	C1.000000,479.646057 1.000000,442.291687 1.000000,404.468658 
	C1.928169,408.097198 2.856338,412.194427 3.911492,417.046021 
	C6.972991,431.874908 12.466073,444.964539 20.089600,457.061401 
	C28.755947,470.812988 39.415977,482.846069 52.948914,492.108917 
	C64.364243,500.916016 77.074936,507.182648 90.831932,511.381622 
	C91.906830,511.709717 93.050552,511.812317 94.564705,512.070557 
z"/>
<path fill="#B8EFD0" opacity="1.000000" stroke="none" 
	d="
M273.923584,25.958721 
	C278.795959,21.383718 283.185760,16.095442 288.651550,12.397576 
	C297.275238,6.563232 306.973175,2.755757 317.753510,1.304514 
	C324.021149,1.000000 330.042297,1.000000 336.779419,1.303927 
	C346.579346,2.716823 355.102600,5.510680 362.978333,10.437668 
	C362.497742,11.464840 362.162140,12.245479 361.620453,12.837579 
	C351.625305,23.762302 338.775574,29.596891 324.700928,32.882397 
	C319.295563,34.144199 313.589081,34.878830 308.059662,34.689491 
	C296.121124,34.280693 284.502106,31.988445 273.923584,25.958721 
z"/>
<path fill="#5AE2CF" opacity="1.000000" stroke="none" 
	d="
M399.000000,83.750000 
	C397.114410,89.653854 395.228790,95.307709 392.577942,100.998230 
	C384.300812,99.017883 376.877411,96.528137 369.255005,95.101555 
	C359.367645,93.251083 349.342255,92.070206 339.339661,90.918968 
	C322.952148,89.032867 306.533234,89.335854 290.258423,91.879433 
	C280.476959,93.408165 270.852051,95.938896 261.156799,98.019333 
	C259.802155,93.608765 258.447479,89.198189 257.525909,84.333817 
	C273.358185,82.586662 288.749512,81.185287 304.160889,80.058441 
	C309.569611,79.662964 315.028809,80.004738 320.462799,79.898598 
	C330.324280,79.705978 340.212311,78.846352 350.038361,79.320198 
	C366.380066,80.108253 382.681580,81.729591 399.000000,83.000000 
	C399.000000,83.000000 399.000000,83.500000 399.000000,83.750000 
z"/>
<path fill="#78E6D0" opacity="1.000000" stroke="none" 
	d="
M256.155457,73.022064 
	C256.537598,68.511902 256.919739,64.001732 257.984985,59.386276 
	C267.023682,60.186863 275.384552,61.888710 283.733734,61.832939 
	C301.120605,61.716793 318.543976,61.209652 335.871124,59.837521 
	C349.978546,58.720352 363.992462,56.268410 377.997864,54.087425 
	C384.017303,53.150051 389.910370,51.400764 395.933655,50.406281 
	C397.004303,54.194809 398.002167,57.597401 399.000000,61.000000 
	C399.000000,63.041668 399.000000,65.083336 398.534241,67.562271 
	C378.923676,68.991280 359.783386,70.084297 340.632416,70.937912 
	C328.555237,71.476219 316.463104,71.698486 304.375854,71.986946 
	C288.303314,72.370514 272.229004,72.680481 256.155457,73.022064 
z"/>
<path fill="#65E3CF" opacity="1.000000" stroke="none" 
	d="
M256.103638,73.445442 
	C272.229004,72.680481 288.303314,72.370514 304.375854,71.986946 
	C316.463104,71.698486 328.555237,71.476219 340.632416,70.937912 
	C359.783386,70.084297 378.923676,68.991280 398.534241,67.999771 
	C399.000000,72.689255 399.000000,77.378510 399.000000,82.533882 
	C382.681580,81.729591 366.380066,80.108253 350.038361,79.320198 
	C340.212311,78.846352 330.324280,79.705978 320.462799,79.898598 
	C315.028809,80.004738 309.569611,79.662964 304.160889,80.058441 
	C288.749512,81.185287 273.358185,82.586662 257.560242,83.943970 
	C256.791595,80.628220 256.421722,77.248520 256.103638,73.445442 
z"/>
<path fill="#FFFFFF" opacity="1.000000" stroke="none" 
	d="
M399.000000,60.531342 
	C398.002167,57.597401 397.004303,54.194809 395.860626,50.055237 
	C392.506836,43.198334 389.298889,37.078407 385.937195,30.656874 
	C379.528351,22.109835 372.277679,14.983158 363.027344,10.103364 
	C355.102600,5.510680 346.579346,2.716823 337.247711,1.303927 
	C357.592285,1.000000 378.184570,1.000000 399.000000,1.000000 
	C399.000000,20.686998 399.000000,40.374840 399.000000,60.531342 
z"/>
<path fill="#4CB2E6" opacity="1.000000" stroke="none" 
	d="
M237.108383,458.043701 
	C229.956406,466.633301 222.804443,475.222900 215.206268,483.650085 
	C211.530487,479.516083 208.262726,475.574921 205.078522,471.567383 
	C195.303406,459.264618 185.168472,447.223297 175.892578,434.553802 
	C160.240372,413.175171 145.021896,391.491302 132.383209,368.094879 
	C122.291855,349.414062 111.294724,331.218719 101.362701,312.456879 
	C94.006699,298.561249 87.715897,284.101746 80.950569,269.893433 
	C90.601585,267.260193 100.252724,264.627411 109.903458,261.993164 
	C110.997162,261.694611 112.088509,261.387421 113.601089,261.526794 
	C118.047981,276.614166 121.622452,291.404022 126.257812,305.853607 
	C129.437088,315.764160 133.556351,325.468445 138.206497,334.790527 
	C146.055725,350.525848 153.938019,366.331909 163.185822,381.253296 
	C169.918869,392.117096 178.666794,401.775665 186.882339,411.667633 
	C201.554901,429.334351 217.831345,445.331360 237.108383,458.043701 
z"/>
<path fill="#4CBDE6" opacity="1.000000" stroke="none" 
	d="
M257.057159,387.119476 
	C257.408661,399.773132 256.256104,412.230499 251.630646,424.653839 
	C247.059937,423.481567 242.789276,422.442902 239.120392,420.349548 
	C231.257401,415.863129 223.660614,410.901520 216.034653,406.010040 
	C197.778259,394.299896 183.392990,378.772186 173.540314,359.602081 
	C167.291199,347.443329 162.412689,334.492432 157.878632,321.560486 
	C151.163223,302.406982 147.261826,282.632996 147.999405,262.165436 
	C157.994110,264.776367 167.990128,267.382355 177.981644,270.005432 
	C179.073059,270.291962 180.138519,270.677429 181.599030,271.251953 
	C181.985748,271.662323 181.989441,271.837769 181.995300,272.442291 
	C181.623230,276.152161 181.372299,279.452545 180.854507,282.710510 
	C177.704514,302.530304 182.324844,321.011566 191.359024,338.383667 
	C199.398300,353.842590 211.407257,365.953369 226.416229,374.878113 
	C235.866714,380.497650 245.759567,385.128845 256.990509,386.285767 
	C257.022491,386.749329 257.039825,386.934387 257.057159,387.119476 
z"/>
<path fill="#84F3F1" opacity="1.000000" stroke="none" 
	d="
M74.959366,176.089752 
	C63.554062,168.531708 57.351082,157.316437 54.415901,144.512299 
	C46.928295,111.849106 65.057961,81.151070 98.068604,73.284271 
	C112.938194,69.740685 127.651321,71.709801 140.890015,80.625641 
	C136.543015,87.731094 132.348709,94.458374 127.948090,101.047859 
	C121.884621,110.127289 115.803902,119.201073 109.482445,128.101044 
	C98.071732,144.166153 86.477150,160.100693 74.959366,176.089752 
z"/>
<path fill="#4CAAE6" opacity="1.000000" stroke="none" 
	d="
M80.579742,269.952728 
	C87.715897,284.101746 94.006699,298.561249 101.362701,312.456879 
	C111.294724,331.218719 122.291855,349.414062 132.383209,368.094879 
	C145.021896,391.491302 160.240372,413.175171 175.892578,434.553802 
	C185.168472,447.223297 195.303406,459.264618 205.078522,471.567383 
	C208.262726,475.574921 211.530487,479.516083 214.904221,483.797485 
	C208.284561,489.070831 201.520721,494.034271 194.261963,498.726593 
	C180.688934,476.940094 167.714478,455.360809 154.499695,433.929718 
	C144.073486,417.020996 133.332458,400.306549 122.766060,383.483978 
	C111.406799,365.399078 100.184982,347.227020 88.717651,329.211151 
	C81.081558,317.214355 73.102669,305.436096 65.315010,293.535278 
	C62.800880,289.693298 60.406998,285.772614 57.958107,281.887939 
	C65.375046,277.929291 72.791985,273.970673 80.579742,269.952728 
z"/>
<path fill="#4CA1E6" opacity="1.000000" stroke="none" 
	d="
M159.359528,513.767395 
	C133.946564,434.172577 91.629158,365.443237 29.207260,309.095245 
	C33.378979,304.031403 37.859989,299.113495 42.790421,294.353088 
	C46.088398,297.537750 49.161030,300.386139 51.743736,303.625214 
	C59.689449,313.590179 67.738472,323.494080 75.210106,333.810760 
	C86.173897,348.949310 97.178650,364.100983 107.245003,379.836212 
	C120.653297,400.795441 133.492371,422.137817 145.965271,443.669373 
	C153.689316,457.003143 160.355774,470.954926 167.348740,484.704681 
	C171.095398,492.071411 174.528320,499.597778 178.102814,507.052094 
	C171.977814,509.268677 165.852829,511.485291 159.359528,513.767395 
z"/>
<path fill="#4CA4E6" opacity="1.000000" stroke="none" 
	d="
M178.472214,507.013855 
	C174.528320,499.597778 171.095398,492.071411 167.348740,484.704681 
	C160.355774,470.954926 153.689316,457.003143 145.965271,443.669373 
	C133.492371,422.137817 120.653297,400.795441 107.245003,379.836212 
	C97.178650,364.100983 86.173897,348.949310 75.210106,333.810760 
	C67.738472,323.494080 59.689449,313.590179 51.743736,303.625214 
	C49.161030,300.386139 46.088398,297.537750 43.096664,294.200989 
	C47.746632,289.992340 52.539787,286.093323 57.645527,282.041138 
	C60.406998,285.772614 62.800880,289.693298 65.315010,293.535278 
	C73.102669,305.436096 81.081558,317.214355 88.717651,329.211151 
	C100.184982,347.227020 111.406799,365.399078 122.766060,383.483978 
	C133.332458,400.306549 144.073486,417.020996 154.499695,433.929718 
	C167.714478,455.360809 180.688934,476.940094 193.907043,498.781403 
	C188.978561,501.730103 183.910080,504.352844 178.472214,507.013855 
z"/>
<path fill="#50D1E0" opacity="1.000000" stroke="none" 
	d="
M359.837433,342.988129 
	C353.118988,350.911377 346.400513,358.834656 339.105957,366.718628 
	C328.773346,356.040833 319.344025,345.077026 309.174744,334.848938 
	C297.384094,322.990112 285.112854,311.590942 272.727692,300.347504 
	C263.904266,292.337433 254.981125,284.310944 245.323013,277.377533 
	C232.404160,268.103241 218.786041,259.793091 205.350235,251.254562 
	C201.053482,248.523956 196.382004,246.383011 191.881973,243.972275 
	C195.026215,239.081818 198.170471,234.191360 201.924667,229.263382 
	C203.882370,230.176331 205.268265,231.077469 206.571655,232.085312 
	C214.678741,238.354080 222.665222,244.784164 230.888184,250.896378 
	C240.959686,258.382599 251.346954,265.446075 261.372101,272.992035 
	C272.458221,281.336578 283.075378,290.313263 294.281250,298.487518 
	C311.111694,310.764618 328.217133,322.669037 345.339569,334.538757 
	C349.922333,337.715668 354.991547,340.190796 359.837433,342.988129 
z"/>
<path fill="#4CB6E6" opacity="1.000000" stroke="none" 
	d="
M237.401489,457.862946 
	C217.831345,445.331360 201.554901,429.334351 186.882339,411.667633 
	C178.666794,401.775665 169.918869,392.117096 163.185822,381.253296 
	C153.938019,366.331909 146.055725,350.525848 138.206497,334.790527 
	C133.556351,325.468445 129.437088,315.764160 126.257812,305.853607 
	C121.622452,291.404022 118.047981,276.614166 114.009308,261.568176 
	C120.504005,260.855194 127.010643,260.543427 133.766266,261.025116 
	C134.782990,269.377411 134.717255,277.135986 136.472183,284.458221 
	C142.113937,307.997803 149.276596,331.041321 160.278442,352.787476 
	C169.182709,370.387573 180.206177,386.350464 193.951126,400.487305 
	C203.555267,410.365295 213.528046,419.766174 225.391083,426.946259 
	C232.549713,431.278961 239.686615,435.647614 246.833282,440.000122 
	C243.787048,445.894165 240.740829,451.788177 237.401489,457.862946 
z"/>
<path fill="#39D4D8" opacity="1.000000" stroke="none" 
	d="
M212.889938,217.960114 
	C217.512405,214.615387 222.134872,211.270676 227.437866,207.992340 
	C232.743912,213.870483 237.073898,219.950012 242.050766,225.443512 
	C256.569244,241.469070 273.726959,254.191864 292.995667,263.876984 
	C303.471313,269.142365 314.398743,273.532837 325.229340,278.062225 
	C340.767670,284.560486 356.963287,288.328247 373.834961,288.993317 
	C374.686951,299.059357 373.455750,308.906860 370.005341,318.806732 
	C365.760376,318.120972 362.022797,317.710815 358.752350,316.252869 
	C335.717133,305.983856 313.166473,294.779663 291.966827,281.003784 
	C266.197540,264.258514 241.097290,246.664658 219.306931,224.787888 
	C217.103714,222.575943 215.025925,220.239029 212.889938,217.960114 
z"/>
<path fill="#1ED9CF" opacity="1.000000" stroke="none" 
	d="
M257.009064,196.171280 
	C264.849518,195.446228 272.739960,193.769485 280.520905,194.177917 
	C302.234833,195.317673 321.943878,202.183517 338.978943,216.311737 
	C347.322754,223.231796 354.059021,231.295883 359.585449,240.695740 
	C349.389984,245.843323 338.856445,245.443542 328.125336,245.211273 
	C316.291656,244.955154 305.111176,242.221146 294.342224,238.016296 
	C274.981201,230.456573 263.484314,215.449203 257.009064,196.171280 
z"/>
<path fill="#5BCFE3" opacity="1.000000" stroke="none" 
	d="
M191.590332,244.157181 
	C196.382004,246.383011 201.053482,248.523956 205.350235,251.254562 
	C218.786041,259.793091 232.404160,268.103241 245.323013,277.377533 
	C254.981125,284.310944 263.904266,292.337433 272.727692,300.347504 
	C285.112854,311.590942 297.384094,322.990112 309.174744,334.848938 
	C319.344025,345.077026 328.773346,356.040833 338.810181,366.868469 
	C330.653503,372.031830 322.216461,377.006042 313.270142,381.714630 
	C304.431396,363.981415 293.415894,348.230988 281.920319,332.754883 
	C267.276306,313.040161 251.542938,294.250305 229.995193,281.891632 
	C215.526627,273.593170 199.963211,267.203644 184.889648,259.960022 
	C187.026001,254.754044 189.162354,249.548065 191.590332,244.157181 
z"/>
<path fill="#84F4ED" opacity="1.000000" stroke="none" 
	d="
M75.117302,176.388519 
	C86.477150,160.100693 98.071732,144.166153 109.482445,128.101044 
	C115.803902,119.201073 121.884621,110.127289 127.948090,101.047859 
	C132.348709,94.458374 136.543015,87.731094 141.163101,80.850601 
	C151.834503,86.241959 159.069626,94.682083 163.708832,105.744125 
	C159.573593,108.715294 155.389893,110.809158 151.901306,113.732513 
	C140.173645,123.560028 129.660492,134.490845 122.435783,148.219101 
	C115.695160,161.027512 110.770287,174.415665 109.000290,188.857407 
	C96.419312,188.512070 85.116119,184.625793 75.117302,176.388519 
z"/>
<path fill="#47D2DD" opacity="1.000000" stroke="none" 
	d="
M212.589935,218.096909 
	C215.025925,220.239029 217.103714,222.575943 219.306931,224.787888 
	C241.097290,246.664658 266.197540,264.258514 291.966827,281.003784 
	C313.166473,294.779663 335.717133,305.983856 358.752350,316.252869 
	C362.022797,317.710815 365.760376,318.120972 369.695312,319.030334 
	C366.793396,326.815765 363.477905,334.586884 359.999939,342.673065 
	C354.991547,340.190796 349.922333,337.715668 345.339569,334.538757 
	C328.217133,322.669037 311.111694,310.764618 294.281250,298.487518 
	C283.075378,290.313263 272.458221,281.336578 261.372101,272.992035 
	C251.346954,265.446075 240.959686,258.382599 230.888184,250.896378 
	C222.665222,244.784164 214.678741,238.354080 206.571655,232.085312 
	C205.268265,231.077469 203.882370,230.176331 202.214325,229.087524 
	C205.359360,225.377350 208.824646,221.805527 212.589935,218.096909 
z"/>
<path fill="#84F4E9" opacity="1.000000" stroke="none" 
	d="
M109.454681,188.909882 
	C110.770287,174.415665 115.695160,161.027512 122.435783,148.219101 
	C129.660492,134.490845 140.173645,123.560028 151.901306,113.732513 
	C155.389893,110.809158 159.573593,108.715294 163.763977,106.100845 
	C168.922729,115.623489 170.641342,125.693810 169.393417,136.543564 
	C168.167816,147.199203 164.711166,156.756836 158.347763,165.305405 
	C149.023697,177.831329 136.628143,185.419388 121.236717,187.971924 
	C117.508621,188.590210 113.687454,188.647232 109.454681,188.909882 
z"/>
<path fill="#31D5D5" opacity="1.000000" stroke="none" 
	d="
M373.897858,288.540283 
	C356.963287,288.328247 340.767670,284.560486 325.229340,278.062225 
	C314.398743,273.532837 303.471313,269.142365 292.995667,263.876984 
	C273.726959,254.191864 256.569244,241.469070 242.050766,225.443512 
	C237.073898,219.950012 232.743912,213.870483 227.760956,207.910553 
	C231.983780,205.503387 236.564011,203.244354 241.813004,201.168060 
	C249.367538,216.530670 260.217865,228.522385 273.209473,238.584106 
	C283.085876,246.233139 294.123077,251.936691 305.984589,256.010834 
	C326.813324,263.164978 347.869080,268.327484 370.117004,263.961792 
	C371.398254,272.003601 372.679504,280.045410 373.897858,288.540283 
z"/>
<path fill="#65CDE7" opacity="1.000000" stroke="none" 
	d="
M184.589752,260.180511 
	C199.963211,267.203644 215.526627,273.593170 229.995193,281.891632 
	C251.542938,294.250305 267.276306,313.040161 281.920319,332.754883 
	C293.415894,348.230988 304.431396,363.981415 312.900879,381.779327 
	C305.326385,384.083160 297.611816,386.056671 289.452942,387.661591 
	C286.765228,380.056854 285.290009,372.461456 282.110687,365.662994 
	C276.365082,353.377075 269.851562,341.426575 263.198395,329.594879 
	C255.265045,315.486633 245.760468,302.411530 231.456314,294.183563 
	C221.592941,288.509979 210.937073,284.208832 200.584244,279.404510 
	C199.951248,279.110748 198.868240,279.786743 197.638184,279.973389 
	C192.185547,277.294556 187.089340,274.653870 181.993118,272.013184 
	C181.989441,271.837769 181.985748,271.662323 181.985077,271.223602 
	C182.755341,267.440582 183.522583,263.920776 184.589752,260.180511 
z"/>
<path fill="#6CCCE9" opacity="1.000000" stroke="none" 
	d="
M197.994614,280.011536 
	C198.868240,279.786743 199.951248,279.110748 200.584244,279.404510 
	C210.937073,284.208832 221.592941,288.509979 231.456314,294.183563 
	C245.760468,302.411530 255.265045,315.486633 263.198395,329.594879 
	C269.851562,341.426575 276.365082,353.377075 282.110687,365.662994 
	C285.290009,372.461456 286.765228,380.056854 289.017609,387.709534 
	C280.849060,388.322113 272.671753,388.623688 264.493744,388.644714 
	C262.266724,388.650421 260.037476,387.811218 257.433228,387.239624 
	C257.039825,386.934387 257.022491,386.749329 256.999207,385.831238 
	C256.349915,379.190613 255.926392,373.249207 255.025375,367.381134 
	C250.940338,340.776215 238.930664,318.042511 220.240219,298.952576 
	C213.454880,292.022217 205.445496,286.290253 197.994614,280.011536 
z"/>
<path fill="#4CBAE6" opacity="1.000000" stroke="none" 
	d="
M246.913452,439.631287 
	C239.686615,435.647614 232.549713,431.278961 225.391083,426.946259 
	C213.528046,419.766174 203.555267,410.365295 193.951126,400.487305 
	C180.206177,386.350464 169.182709,370.387573 160.278442,352.787476 
	C149.276596,331.041321 142.113937,307.997803 136.472183,284.458221 
	C134.717255,277.135986 134.782990,269.377411 134.027985,261.353027 
	C138.417862,261.253906 142.795029,261.620331 147.585785,262.076111 
	C147.261826,282.632996 151.163223,302.406982 157.878632,321.560486 
	C162.412689,334.492432 167.291199,347.443329 173.540314,359.602081 
	C183.392990,378.772186 197.778259,394.299896 216.034653,406.010040 
	C223.660614,410.901520 231.257401,415.863129 239.120392,420.349548 
	C242.789276,422.442902 247.059937,423.481567 251.446136,424.999420 
	C250.220856,429.754517 248.607254,434.508453 246.913452,439.631287 
z"/>
<path fill="#9FECD0" opacity="1.000000" stroke="none" 
	d="
M362.978333,10.437668 
	C372.277679,14.983158 379.528351,22.109835 385.570618,30.702076 
	C374.174957,36.779530 362.979950,42.588917 350.422913,44.670330 
	C336.462036,46.984436 322.484161,50.115307 308.425537,50.674473 
	C292.817810,51.295250 277.074005,49.656467 262.136932,44.032539 
	C265.871796,38.116814 269.606628,32.201096 273.632538,26.122046 
	C284.502106,31.988445 296.121124,34.280693 308.059662,34.689491 
	C313.589081,34.878830 319.295563,34.144199 324.700928,32.882397 
	C338.775574,29.596891 351.625305,23.762302 361.620453,12.837579 
	C362.162140,12.245479 362.497742,11.464840 362.978333,10.437668 
z"/>
<path fill="#25D7D2" opacity="1.000000" stroke="none" 
	d="
M370.063354,263.572113 
	C347.869080,268.327484 326.813324,263.164978 305.984589,256.010834 
	C294.123077,251.936691 283.085876,246.233139 273.209473,238.584106 
	C260.217865,228.522385 249.367538,216.530670 242.189545,201.150055 
	C246.674438,199.318909 251.451553,197.688492 256.618866,196.114670 
	C263.484314,215.449203 274.981201,230.456573 294.342224,238.016296 
	C305.111176,242.221146 316.291656,244.955154 328.125336,245.211273 
	C338.856445,245.443542 349.389984,245.843323 359.737732,241.011444 
	C363.414551,248.372635 366.712128,255.777542 370.063354,263.572113 
z"/>
<path fill="#88E8D0" opacity="1.000000" stroke="none" 
	d="
M261.960541,44.361485 
	C277.074005,49.656467 292.817810,51.295250 308.425537,50.674473 
	C322.484161,50.115307 336.462036,46.984436 350.422913,44.670330 
	C362.979950,42.588917 374.174957,36.779530 385.724396,31.003681 
	C389.298889,37.078407 392.506836,43.198334 395.787811,49.669304 
	C389.910370,51.400764 384.017303,53.150051 377.997864,54.087425 
	C363.992462,56.268410 349.978546,58.720352 335.871124,59.837521 
	C318.543976,61.209652 301.120605,61.716793 283.733734,61.832939 
	C275.384552,61.888710 267.023682,60.186863 258.287964,59.111111 
	C259.199951,54.190971 260.492035,49.440701 261.960541,44.361485 
z"/>
<path fill="#33DCCF" opacity="1.000000" stroke="none" 
	d="
M276.952454,123.102760 
	C273.703796,118.954895 270.455170,114.807030 267.388855,110.204987 
	C276.405975,107.106606 285.106079,103.806984 294.104309,101.958488 
	C311.338104,98.418167 328.691681,99.210533 345.949615,102.475174 
	C359.461548,105.031181 371.831604,110.525757 383.827271,117.013336 
	C378.444946,121.946831 373.062622,126.880333 367.218323,131.648148 
	C360.268890,126.971191 354.217255,121.568611 347.201355,118.138145 
	C333.500854,111.439232 318.734039,109.455261 303.592346,112.055305 
	C293.923004,113.715668 284.498413,116.208351 276.952454,123.102760 
z"/>
<path fill="#45DFCF" opacity="1.000000" stroke="none" 
	d="
M383.992920,116.707077 
	C371.831604,110.525757 359.461548,105.031181 345.949615,102.475174 
	C328.691681,99.210533 311.338104,98.418167 294.104309,101.958488 
	C285.106079,103.806984 276.405975,107.106606 267.232513,109.893906 
	C264.954895,106.273170 263.015961,102.509331 261.116943,98.382401 
	C270.852051,95.938896 280.476959,93.408165 290.258423,91.879433 
	C306.533234,89.335854 322.952148,89.032867 339.339661,90.918968 
	C349.342255,92.070206 359.367645,93.251083 369.255005,95.101555 
	C376.877411,96.528137 384.300812,99.017883 392.254242,101.107109 
	C389.850037,106.253151 387.004303,111.326988 383.992920,116.707077 
z"/>
<path fill="#1ED9CF" opacity="1.000000" stroke="none" 
	d="
M351.376129,139.799545 
	C337.620117,145.187759 323.464294,145.602402 309.506470,141.544785 
	C301.799744,139.304382 294.679230,135.047302 287.269165,131.087997 
	C289.391388,128.698547 291.280579,126.353249 293.729858,125.237999 
	C306.059509,119.623901 318.923767,118.356689 331.572723,123.519211 
	C339.620453,126.803772 347.392853,131.202469 351.376129,139.799545 
z"/>
<path fill="#25D7D2" opacity="1.000000" stroke="none" 
	d="
M351.773987,139.813751 
	C347.392853,131.202469 339.620453,126.803772 331.572723,123.519211 
	C318.923767,118.356689 306.059509,119.623901 293.729858,125.237999 
	C291.280579,126.353249 289.391388,128.698547 287.095642,130.787994 
	C283.728912,128.627533 280.510406,126.155724 277.122192,123.393341 
	C284.498413,116.208351 293.923004,113.715668 303.592346,112.055305 
	C318.734039,109.455261 333.500854,111.439232 347.201355,118.138145 
	C354.217255,121.568611 360.268890,126.971191 366.901794,131.792603 
	C362.088806,134.677811 357.130341,137.252884 351.773987,139.813751 
z"/>
<path fill="#4C82E6" opacity="1.000000" stroke="none" 
	d="
M53.101055,491.757416 
	C39.415977,482.846069 28.755947,470.812988 20.089600,457.061401 
	C12.466073,444.964539 6.972991,431.874908 4.101140,417.401184 
	C22.680550,416.726288 35.577663,426.238068 45.885658,440.605560 
	C51.934834,449.037079 56.136078,458.333984 56.419342,468.538971 
	C56.629944,476.126129 54.397507,483.781128 53.101055,491.757416 
z"/>
<path fill="#51C3E7" opacity="1.000000" stroke="none" 
	d="
M197.638184,279.973389 
	C205.445496,286.290253 213.454880,292.022217 220.240219,298.952576 
	C238.930664,318.042511 250.940338,340.776215 255.025375,367.381134 
	C255.926392,373.249207 256.349915,379.190613 256.984619,385.552795 
	C245.759567,385.128845 235.866714,380.497650 226.416229,374.878113 
	C211.407257,365.953369 199.398300,353.842590 191.359024,338.383667 
	C182.324844,321.011566 177.704514,302.530304 180.854507,282.710510 
	C181.372299,279.452545 181.623230,276.152161 181.995300,272.442291 
	C187.089340,274.653870 192.185547,277.294556 197.638184,279.973389 
z"/>
</svg>